<svg xmlns="http://www.w3.org/2000/svg" viewBox="0 0 1600 520" preserveAspectRatio="xMidYMid slice" role="img"><defs><linearGradient id="warm" x1="0" y1="0" x2="0" y2="1"><stop offset="0" stop-color="#fef6f0" stop-opacity="0.25"/><stop offset="0.5" stop-color="#fef6f0" stop-opacity="0"/><stop offset="1" stop-color="#3d1c19" stop-opacity="0.12"/></linearGradient></defs><rect width="1600" height="520" fill="#fbeee3"/><g><rect x="-4.8" y="52.4" width="64.4" height="197.6" fill="#a85a4a"/><rect x="-4.8" y="52.4" width="3" height="197.6" fill="#c27464" opacity="0.55"/><rect x="56.6" y="52.4" width="3" height="197.6" fill="#863828" opacity="0.6"/><rect x="0.2" y="84.0" width="54.4" height="2.5" fill="#d08272" opacity="0.5"/><rect x="0.2" y="91.0" width="54.4" height="2.5" fill="#d08272" opacity="0.5"/><rect x="21.4" y="151.2" width="12" height="39.5" fill="#ca7c6c" opacity="0.4"/></g><g><rect x="61.4" y="90.3" width="52.2" height="159.7" fill="#8e6f6c"/><rect x="61.4" y="90.3" width="3" height="159.7" fill="#a88986" opacity="0.55"/><rect x="110.6" y="90.3" width="3" height="159.7" fill="#6c4d4a" opacity="0.6"/><rect x="66.4" y="115.8" width="42.2" height="2.5" fill="#b69794" opacity="0.5"/><rect x="66.4" y="122.8" width="42.2" height="2.5" fill="#b69794" opacity="0.5"/><rect x="81.5" y="170.1" width="12" height="31.9" fill="#b0918e" opacity="0.4"/></g><g><rect x="115.2" y="26.7" width="46.5" height="223.3" fill="#496e82"/><rect x="115.2" y="26.7" width="3" height="223.3" fill="#63889c" opacity="0.55"/><rect x="158.8" y="26.7" width="3" height="223.3" fill="#274c60" opacity="0.6"/><rect x="120.2" y="62.4" width="36.5" height="2.5" fill="#7196aa" opacity="0.5"/><rect x="120.2" y="69.4" width="36.5" height="2.5" fill="#7196aa" opacity="0.5"/><rect x="132.5" y="138.3" width="12" height="44.7" fill="#6b90a4" opacity="0.4"/></g><g><rect x="163.6" y="64.6" width="57.5" height="185.4" fill="#a85a4a"/><rect x="163.6" y="64.6" width="3" height="185.4" fill="#c27464" opacity="0.55"/><rect x="218.2" y="64.6" width="3" height="185.4" fill="#863828" opacity="0.6"/><rect x="168.6" y="94.3" width="47.5" height="2.5" fill="#d08272" opacity="0.5"/><rect x="168.6" y="101.3" width="47.5" height="2.5" fill="#d08272" opacity="0.5"/><rect x="186.4" y="157.3" width="12" height="37.1" fill="#ca7c6c" opacity="0.4"/></g><g><rect x="222.7" y="48.5" width="41.7" height="201.5" fill="#6a5f57"/><rect x="222.7" y="48.5" width="3" height="201.5" fill="#847971" opacity="0.55"/><rect x="261.3" y="48.5" width="3" height="201.5" fill="#483d35" opacity="0.6"/><rect x="227.7" y="80.7" width="31.7" height="2.5" fill="#92877f" opacity="0.5"/><rect x="227.7" y="87.7" width="31.7" height="2.5" fill="#92877f" opacity="0.5"/><rect x="237.5" y="149.2" width="12" height="40.3" fill="#8c8179" opacity="0.4"/></g><g><rect x="266.0" y="71.8" width="43.3" height="178.2" fill="#e6cdbb"/><rect x="266.0" y="71.8" width="3" height="178.2" fill="#ffe7d5" opacity="0.55"/><rect x="306.3" y="71.8" width="3" height="178.2" fill="#c4ab99" opacity="0.6"/><rect x="271.0" y="100.3" width="33.3" height="2.5" fill="#fff5e3" opacity="0.5"/><rect x="271.0" y="107.3" width="33.3" height="2.5" fill="#fff5e3" opacity="0.5"/><rect x="281.6" y="160.9" width="12" height="35.6" fill="#ffefdd" opacity="0.4"/></g><g><rect x="311.4" y="18.6" width="32.5" height="231.4" fill="#562823"/><rect x="311.4" y="18.6" width="3" height="231.4" fill="#70423d" opacity="0.55"/><rect x="340.9" y="18.6" width="3" height="231.4" fill="#340601" opacity="0.6"/><rect x="316.4" y="55.6" width="22.5" height="2.5" fill="#7e504b" opacity="0.5"/><rect x="316.4" y="62.6" width="22.5" height="2.5" fill="#7e504b" opacity="0.5"/></g><g><rect x="345.3" y="67.9" width="59.2" height="182.1" fill="#8b7c71"/><rect x="345.3" y="67.9" width="3" height="182.1" fill="#a5968b" opacity="0.55"/><rect x="401.5" y="67.9" width="3" height="182.1" fill="#695a4f" opacity="0.6"/><rect x="350.3" y="97.0" width="49.2" height="2.5" fill="#b3a499" opacity="0.5"/><rect x="350.3" y="104.0" width="49.2" height="2.5" fill="#b3a499" opacity="0.5"/><rect x="368.9" y="158.9" width="12" height="36.4" fill="#ad9e93" opacity="0.4"/></g><g><rect x="406.3" y="23.5" width="35.8" height="226.5" fill="#8b7c71"/><rect x="406.3" y="23.5" width="3" height="226.5" fill="#a5968b" opacity="0.55"/><rect x="439.1" y="23.5" width="3" height="226.5" fill="#695a4f" opacity="0.6"/><rect x="411.3" y="59.8" width="25.8" height="2.5" fill="#b3a499" opacity="0.5"/><rect x="411.3" y="66.8" width="25.8" height="2.5" fill="#b3a499" opacity="0.5"/><rect x="418.2" y="136.8" width="12" height="45.3" fill="#ad9e93" opacity="0.4"/></g><g><rect x="443.9" y="96.5" width="55.0" height="153.5" fill="#a85a4a"/><rect x="443.9" y="96.5" width="3" height="153.5" fill="#c27464" opacity="0.55"/><rect x="495.9" y="96.5" width="3" height="153.5" fill="#863828" opacity="0.6"/><rect x="448.9" y="121.1" width="45.0" height="2.5" fill="#d08272" opacity="0.5"/><rect x="448.9" y="128.1" width="45.0" height="2.5" fill="#d08272" opacity="0.5"/><rect x="465.4" y="173.3" width="12" height="30.7" fill="#ca7c6c" opacity="0.4"/></g><g><rect x="501.2" y="44.5" width="48.4" height="205.5" fill="#496e82"/><rect x="501.2" y="44.5" width="3" height="205.5" fill="#63889c" opacity="0.55"/><rect x="546.6" y="44.5" width="3" height="205.5" fill="#274c60" opacity="0.6"/><rect x="506.2" y="77.4" width="38.4" height="2.5" fill="#7196aa" opacity="0.5"/><rect x="506.2" y="84.4" width="38.4" height="2.5" fill="#7196aa" opacity="0.5"/><rect x="519.4" y="147.3" width="12" height="41.1" fill="#6b90a4" opacity="0.4"/></g><g><rect x="550.8" y="37.5" width="60.9" height="212.5" fill="#6a5f57"/><rect x="550.8" y="37.5" width="3" height="212.5" fill="#847971" opacity="0.55"/><rect x="608.7" y="37.5" width="3" height="212.5" fill="#483d35" opacity="0.6"/><rect x="555.8" y="71.5" width="50.9" height="2.5" fill="#92877f" opacity="0.5"/><rect x="555.8" y="78.5" width="50.9" height="2.5" fill="#92877f" opacity="0.5"/><rect x="575.3" y="143.7" width="12" height="42.5" fill="#8c8179" opacity="0.4"/></g><g><rect x="613.1" y="48.9" width="40.8" height="201.1" fill="#143546"/><rect x="613.1" y="48.9" width="3" height="201.1" fill="#2e4f60" opacity="0.55"/><rect x="650.9" y="48.9" width="3" height="201.1" fill="#001324" opacity="0.6"/><rect x="618.1" y="81.0" width="30.8" height="2.5" fill="#3c5d6e" opacity="0.5"/><rect x="618.1" y="88.0" width="30.8" height="2.5" fill="#3c5d6e" opacity="0.5"/><rect x="627.5" y="149.4" width="12" height="40.2" fill="#365768" opacity="0.4"/></g><g><rect x="656.2" y="60.3" width="38.3" height="189.7" fill="#b4a092"/><rect x="656.2" y="60.3" width="3" height="189.7" fill="#cebaac" opacity="0.55"/><rect x="691.5" y="60.3" width="3" height="189.7" fill="#927e70" opacity="0.6"/><rect x="661.2" y="90.6" width="28.3" height="2.5" fill="#dcc8ba" opacity="0.5"/><rect x="661.2" y="97.6" width="28.3" height="2.5" fill="#dcc8ba" opacity="0.5"/><rect x="669.4" y="155.1" width="12" height="37.9" fill="#d6c2b4" opacity="0.4"/></g><g transform="rotate(-3.58 710.1 250)"><rect x="696.3" y="91.7" width="27.5" height="158.3" fill="#8b7c71"/><rect x="696.3" y="91.7" width="3" height="158.3" fill="#a5968b" opacity="0.55"/><rect x="720.9" y="91.7" width="3" height="158.3" fill="#695a4f" opacity="0.6"/><rect x="701.3" y="117.1" width="17.5" height="2.5" fill="#b3a499" opacity="0.5"/><rect x="701.3" y="124.1" width="17.5" height="2.5" fill="#b3a499" opacity="0.5"/></g><g transform="rotate(3.70 746.2 250)"><rect x="726.1" y="48.8" width="40.2" height="201.2" fill="#496e82"/><rect x="726.1" y="48.8" width="3" height="201.2" fill="#63889c" opacity="0.55"/><rect x="763.2" y="48.8" width="3" height="201.2" fill="#274c60" opacity="0.6"/><rect x="731.1" y="81.0" width="30.2" height="2.5" fill="#7196aa" opacity="0.5"/><rect x="731.1" y="88.0" width="30.2" height="2.5" fill="#7196aa" opacity="0.5"/><rect x="740.2" y="149.4" width="12" height="40.2" fill="#6b90a4" opacity="0.4"/></g><g><rect x="768.7" y="34.0" width="51.2" height="216.0" fill="#4e2420"/><rect x="768.7" y="34.0" width="3" height="216.0" fill="#683e3a" opacity="0.55"/><rect x="816.9" y="34.0" width="3" height="216.0" fill="#2c0200" opacity="0.6"/><rect x="773.7" y="68.6" width="41.2" height="2.5" fill="#764c48" opacity="0.5"/><rect x="773.7" y="75.6" width="41.2" height="2.5" fill="#764c48" opacity="0.5"/><rect x="788.3" y="142.0" width="12" height="43.2" fill="#704642" opacity="0.4"/></g><g><rect x="821.1" y="24.0" width="62.6" height="226.0" fill="#b4a092"/><rect x="821.1" y="24.0" width="3" height="226.0" fill="#cebaac" opacity="0.55"/><rect x="880.7" y="24.0" width="3" height="226.0" fill="#927e70" opacity="0.6"/><rect x="826.1" y="60.2" width="52.6" height="2.5" fill="#dcc8ba" opacity="0.5"/><rect x="826.1" y="67.2" width="52.6" height="2.5" fill="#dcc8ba" opacity="0.5"/><rect x="846.4" y="137.0" width="12" height="45.2" fill="#d6c2b4" opacity="0.4"/></g><g><rect x="884.6" y="17.7" width="55.1" height="232.3" fill="#a85a4a"/><rect x="884.6" y="17.7" width="3" height="232.3" fill="#c27464" opacity="0.55"/><rect x="936.7" y="17.7" width="3" height="232.3" fill="#863828" opacity="0.6"/><rect x="889.6" y="54.9" width="45.1" height="2.5" fill="#d08272" opacity="0.5"/><rect x="889.6" y="61.9" width="45.1" height="2.5" fill="#d08272" opacity="0.5"/><rect x="906.2" y="133.9" width="12" height="46.5" fill="#ca7c6c" opacity="0.4"/></g><g><rect x="941.0" y="66.1" width="53.9" height="183.9" fill="#9d4e4e"/><rect x="941.0" y="66.1" width="3" height="183.9" fill="#b76868" opacity="0.55"/><rect x="991.9" y="66.1" width="3" height="183.9" fill="#7b2c2c" opacity="0.6"/><rect x="946.0" y="95.5" width="43.9" height="2.5" fill="#c57676" opacity="0.5"/><rect x="946.0" y="102.5" width="43.9" height="2.5" fill="#c57676" opacity="0.5"/><rect x="961.9" y="158.0" width="12" height="36.8" fill="#bf7070" opacity="0.4"/></g><g><rect x="996.6" y="20.0" width="29.0" height="230.0" fill="#c96464"/><rect x="996.6" y="20.0" width="3" height="230.0" fill="#e37e7e" opacity="0.55"/><rect x="1022.6" y="20.0" width="3" height="230.0" fill="#a74242" opacity="0.6"/><rect x="1001.6" y="56.8" width="19.0" height="2.5" fill="#f18c8c" opacity="0.5"/><rect x="1001.6" y="63.8" width="19.0" height="2.5" fill="#f18c8c" opacity="0.5"/></g><g><rect x="1028.0" y="63.4" width="42.7" height="186.6" fill="#4e2420"/><rect x="1028.0" y="63.4" width="3" height="186.6" fill="#683e3a" opacity="0.55"/><rect x="1067.7" y="63.4" width="3" height="186.6" fill="#2c0200" opacity="0.6"/><rect x="1033.0" y="93.3" width="32.7" height="2.5" fill="#764c48" opacity="0.5"/><rect x="1033.0" y="100.3" width="32.7" height="2.5" fill="#764c48" opacity="0.5"/><rect x="1043.3" y="156.7" width="12" height="37.3" fill="#704642" opacity="0.4"/></g><g transform="rotate(0.63 1097.5 250)"><rect x="1073.0" y="80.8" width="48.9" height="169.2" fill="#e6cdbb"/><rect x="1073.0" y="80.8" width="3" height="169.2" fill="#ffe7d5" opacity="0.55"/><rect x="1118.9" y="80.8" width="3" height="169.2" fill="#c4ab99" opacity="0.6"/><rect x="1078.0" y="107.9" width="38.9" height="2.5" fill="#fff5e3" opacity="0.5"/><rect x="1078.0" y="114.9" width="38.9" height="2.5" fill="#fff5e3" opacity="0.5"/><rect x="1091.5" y="165.4" width="12" height="33.8" fill="#ffefdd" opacity="0.4"/></g><g><rect x="1122.7" y="68.4" width="44.9" height="181.6" fill="#7a3d3d"/><rect x="1122.7" y="68.4" width="3" height="181.6" fill="#945757" opacity="0.55"/><rect x="1164.6" y="68.4" width="3" height="181.6" fill="#581b1b" opacity="0.6"/><rect x="1127.7" y="97.5" width="34.9" height="2.5" fill="#a26565" opacity="0.5"/><rect x="1127.7" y="104.5" width="34.9" height="2.5" fill="#a26565" opacity="0.5"/><rect x="1139.1" y="159.2" width="12" height="36.3" fill="#9c5f5f" opacity="0.4"/></g><g><rect x="1169.1" y="54.4" width="60.3" height="195.6" fill="#c96464"/><rect x="1169.1" y="54.4" width="3" height="195.6" fill="#e37e7e" opacity="0.55"/><rect x="1226.4" y="54.4" width="3" height="195.6" fill="#a74242" opacity="0.6"/><rect x="1174.1" y="85.7" width="50.3" height="2.5" fill="#f18c8c" opacity="0.5"/><rect x="1174.1" y="92.7" width="50.3" height="2.5" fill="#f18c8c" opacity="0.5"/><rect x="1193.2" y="152.2" width="12" height="39.1" fill="#eb8686" opacity="0.4"/></g><g><rect x="1230.4" y="63.3" width="49.2" height="186.7" fill="#a85a4a"/><rect x="1230.4" y="63.3" width="3" height="186.7" fill="#c27464" opacity="0.55"/><rect x="1276.6" y="63.3" width="3" height="186.7" fill="#863828" opacity="0.6"/><rect x="1235.4" y="93.2" width="39.2" height="2.5" fill="#d08272" opacity="0.5"/><rect x="1235.4" y="100.2" width="39.2" height="2.5" fill="#d08272" opacity="0.5"/><rect x="1249.0" y="156.7" width="12" height="37.3" fill="#ca7c6c" opacity="0.4"/></g><g><rect x="1281.8" y="84.7" width="57.6" height="165.3" fill="#a85a4a"/><rect x="1281.8" y="84.7" width="3" height="165.3" fill="#c27464" opacity="0.55"/><rect x="1336.4" y="84.7" width="3" height="165.3" fill="#863828" opacity="0.6"/><rect x="1286.8" y="111.1" width="47.6" height="2.5" fill="#d08272" opacity="0.5"/><rect x="1286.8" y="118.1" width="47.6" height="2.5" fill="#d08272" opacity="0.5"/><rect x="1304.6" y="167.3" width="12" height="33.1" fill="#ca7c6c" opacity="0.4"/></g><g><rect x="1340.1" y="90.4" width="48.2" height="159.6" fill="#a85a4a"/><rect x="1340.1" y="90.4" width="3" height="159.6" fill="#c27464" opacity="0.55"/><rect x="1385.3" y="90.4" width="3" height="159.6" fill="#863828" opacity="0.6"/><rect x="1345.1" y="116.0" width="38.2" height="2.5" fill="#d08272" opacity="0.5"/><rect x="1345.1" y="123.0" width="38.2" height="2.5" fill="#d08272" opacity="0.5"/><rect x="1358.2" y="170.2" width="12" height="31.9" fill="#ca7c6c" opacity="0.4"/></g><g><rect x="1389.3" y="72.5" width="42.0" height="177.5" fill="#9d4e4e"/><rect x="1389.3" y="72.5" width="3" height="177.5" fill="#b76868" opacity="0.55"/><rect x="1428.3" y="72.5" width="3" height="177.5" fill="#7b2c2c" opacity="0.6"/><rect x="1394.3" y="100.9" width="32.0" height="2.5" fill="#c57676" opacity="0.5"/><rect x="1394.3" y="107.9" width="32.0" height="2.5" fill="#c57676" opacity="0.5"/><rect x="1404.3" y="161.2" width="12" height="35.5" fill="#bf7070" opacity="0.4"/></g><g><rect x="1432.8" y="95.2" width="50.4" height="154.8" fill="#562823"/><rect x="1432.8" y="95.2" width="3" height="154.8" fill="#70423d" opacity="0.55"/><rect x="1480.3" y="95.2" width="3" height="154.8" fill="#340601" opacity="0.6"/><rect x="1437.8" y="119.9" width="40.4" height="2.5" fill="#7e504b" opacity="0.5"/><rect x="1437.8" y="126.9" width="40.4" height="2.5" fill="#7e504b" opacity="0.5"/><rect x="1452.1" y="172.6" width="12" height="31.0" fill="#784a45" opacity="0.4"/></g><g><rect x="1484.5" y="99.3" width="39.3" height="150.7" fill="#c96464"/><rect x="1484.5" y="99.3" width="3" height="150.7" fill="#e37e7e" opacity="0.55"/><rect x="1520.8" y="99.3" width="3" height="150.7" fill="#a74242" opacity="0.6"/><rect x="1489.5" y="123.4" width="29.3" height="2.5" fill="#f18c8c" opacity="0.5"/><rect x="1489.5" y="130.4" width="29.3" height="2.5" fill="#f18c8c" opacity="0.5"/><rect x="1498.1" y="174.6" width="12" height="30.1" fill="#eb8686" opacity="0.4"/></g><g><rect x="1525.5" y="99.6" width="28.9" height="150.4" fill="#8b7c71"/><rect x="1525.5" y="99.6" width="3" height="150.4" fill="#a5968b" opacity="0.55"/><rect x="1551.4" y="99.6" width="3" height="150.4" fill="#695a4f" opacity="0.6"/><rect x="1530.5" y="123.6" width="18.9" height="2.5" fill="#b3a499" opacity="0.5"/><rect x="1530.5" y="130.6" width="18.9" height="2.5" fill="#b3a499" opacity="0.5"/></g><g><rect x="1556.3" y="39.0" width="46.2" height="211.0" fill="#8b7c71"/><rect x="1556.3" y="39.0" width="3" height="211.0" fill="#a5968b" opacity="0.55"/><rect x="1599.5" y="39.0" width="3" height="211.0" fill="#695a4f" opacity="0.6"/><rect x="1561.3" y="72.7" width="36.2" height="2.5" fill="#b3a499" opacity="0.5"/><rect x="1561.3" y="79.7" width="36.2" height="2.5" fill="#b3a499" opacity="0.5"/><rect x="1573.4" y="144.5" width="12" height="42.2" fill="#ad9e93" opacity="0.4"/></g><rect x="0" y="250" width="1600" height="10" fill="#4e2420" opacity="0.85"/><rect x="0" y="260" width="1600" height="6" fill="#2f1613" opacity="0.5"/><g><rect x="-5.2" y="276.2" width="55.6" height="235.8" fill="#c96464"/><rect x="-5.2" y="276.2" width="3" height="235.8" fill="#e37e7e" opacity="0.55"/><rect x="47.4" y="276.2" width="3" height="235.8" fill="#a74242" opacity="0.6"/><rect x="-0.2" y="313.9" width="45.6" height="2.5" fill="#f18c8c" opacity="0.5"/><rect x="-0.2" y="320.9" width="45.6" height="2.5" fill="#f18c8c" opacity="0.5"/><rect x="16.6" y="394.1" width="12" height="47.2" fill="#eb8686" opacity="0.4"/></g><g><rect x="52.9" y="318.6" width="50.2" height="193.4" fill="#4e2420"/><rect x="52.9" y="318.6" width="3" height="193.4" fill="#683e3a" opacity="0.55"/><rect x="100.1" y="318.6" width="3" height="193.4" fill="#2c0200" opacity="0.6"/><rect x="57.9" y="349.6" width="40.2" height="2.5" fill="#764c48" opacity="0.5"/><rect x="57.9" y="356.6" width="40.2" height="2.5" fill="#764c48" opacity="0.5"/><rect x="72.0" y="415.3" width="12" height="38.7" fill="#704642" opacity="0.4"/></g><g><rect x="104.1" y="321.7" width="32.7" height="190.3" fill="#1c4a63"/><rect x="104.1" y="321.7" width="3" height="190.3" fill="#36647d" opacity="0.55"/><rect x="133.8" y="321.7" width="3" height="190.3" fill="#002841" opacity="0.6"/><rect x="109.1" y="352.2" width="22.7" height="2.5" fill="#44728b" opacity="0.5"/><rect x="109.1" y="359.2" width="22.7" height="2.5" fill="#44728b" opacity="0.5"/></g><g><rect x="138.2" y="265.5" width="59.6" height="246.5" fill="#e6cdbb"/><rect x="138.2" y="265.5" width="3" height="246.5" fill="#ffe7d5" opacity="0.55"/><rect x="194.8" y="265.5" width="3" height="246.5" fill="#c4ab99" opacity="0.6"/><rect x="143.2" y="304.9" width="49.6" height="2.5" fill="#fff5e3" opacity="0.5"/><rect x="143.2" y="311.9" width="49.6" height="2.5" fill="#fff5e3" opacity="0.5"/><rect x="162.0" y="388.7" width="12" height="49.3" fill="#ffefdd" opacity="0.4"/></g><g><rect x="199.2" y="262.2" width="26.6" height="249.8" fill="#496e82"/><rect x="199.2" y="262.2" width="3" height="249.8" fill="#63889c" opacity="0.55"/><rect x="222.8" y="262.2" width="3" height="249.8" fill="#274c60" opacity="0.6"/><rect x="204.2" y="302.2" width="16.6" height="2.5" fill="#7196aa" opacity="0.5"/><rect x="204.2" y="309.2" width="16.6" height="2.5" fill="#7196aa" opacity="0.5"/></g><g transform="rotate(2.80 240.7 512)"><rect x="227.4" y="301.3" width="26.7" height="210.7" fill="#6a5f57"/><rect x="227.4" y="301.3" width="3" height="210.7" fill="#847971" opacity="0.55"/><rect x="251.0" y="301.3" width="3" height="210.7" fill="#483d35" opacity="0.6"/><rect x="232.4" y="335.0" width="16.7" height="2.5" fill="#92877f" opacity="0.5"/><rect x="232.4" y="342.0" width="16.7" height="2.5" fill="#92877f" opacity="0.5"/></g><g><rect x="254.8" y="306.2" width="26.2" height="205.8" fill="#143546"/><rect x="254.8" y="306.2" width="3" height="205.8" fill="#2e4f60" opacity="0.55"/><rect x="278.0" y="306.2" width="3" height="205.8" fill="#001324" opacity="0.6"/><rect x="259.8" y="339.1" width="16.2" height="2.5" fill="#3c5d6e" opacity="0.5"/><rect x="259.8" y="346.1" width="16.2" height="2.5" fill="#3c5d6e" opacity="0.5"/></g><g><rect x="281.7" y="311.5" width="30.5" height="200.5" fill="#78534f"/><rect x="281.7" y="311.5" width="3" height="200.5" fill="#926d69" opacity="0.55"/><rect x="309.2" y="311.5" width="3" height="200.5" fill="#56312d" opacity="0.6"/><rect x="286.7" y="343.6" width="20.5" height="2.5" fill="#a07b77" opacity="0.5"/><rect x="286.7" y="350.6" width="20.5" height="2.5" fill="#a07b77" opacity="0.5"/></g><g><rect x="313.0" y="277.4" width="41.4" height="234.6" fill="#8e6f6c"/><rect x="313.0" y="277.4" width="3" height="234.6" fill="#a88986" opacity="0.55"/><rect x="351.4" y="277.4" width="3" height="234.6" fill="#6c4d4a" opacity="0.6"/><rect x="318.0" y="315.0" width="31.4" height="2.5" fill="#b69794" opacity="0.5"/><rect x="318.0" y="322.0" width="31.4" height="2.5" fill="#b69794" opacity="0.5"/><rect x="327.7" y="394.7" width="12" height="46.9" fill="#b0918e" opacity="0.4"/></g><g><rect x="355.0" y="294.3" width="59.9" height="217.7" fill="#496e82"/><rect x="355.0" y="294.3" width="3" height="217.7" fill="#63889c" opacity="0.55"/><rect x="411.8" y="294.3" width="3" height="217.7" fill="#274c60" opacity="0.6"/><rect x="360.0" y="329.2" width="49.9" height="2.5" fill="#7196aa" opacity="0.5"/><rect x="360.0" y="336.2" width="49.9" height="2.5" fill="#7196aa" opacity="0.5"/><rect x="378.9" y="403.2" width="12" height="43.5" fill="#6b90a4" opacity="0.4"/></g><g transform="rotate(-0.23 445.9 512)"><rect x="417.3" y="323.2" width="57.3" height="188.8" fill="#e6cdbb"/><rect x="417.3" y="323.2" width="3" height="188.8" fill="#ffe7d5" opacity="0.55"/><rect x="471.5" y="323.2" width="3" height="188.8" fill="#c4ab99" opacity="0.6"/><rect x="422.3" y="353.4" width="47.3" height="2.5" fill="#fff5e3" opacity="0.5"/><rect x="422.3" y="360.4" width="47.3" height="2.5" fill="#fff5e3" opacity="0.5"/><rect x="439.9" y="417.6" width="12" height="37.8" fill="#ffefdd" opacity="0.4"/></g><g><rect x="476.7" y="265.4" width="33.7" height="246.6" fill="#8b7c71"/><rect x="476.7" y="265.4" width="3" height="246.6" fill="#a5968b" opacity="0.55"/><rect x="507.4" y="265.4" width="3" height="246.6" fill="#695a4f" opacity="0.6"/><rect x="481.7" y="304.9" width="23.7" height="2.5" fill="#b3a499" opacity="0.5"/><rect x="481.7" y="311.9" width="23.7" height="2.5" fill="#b3a499" opacity="0.5"/></g><g><rect x="511.6" y="294.6" width="48.5" height="217.4" fill="#4e2420"/><rect x="511.6" y="294.6" width="3" height="217.4" fill="#683e3a" opacity="0.55"/><rect x="557.1" y="294.6" width="3" height="217.4" fill="#2c0200" opacity="0.6"/><rect x="516.6" y="329.4" width="38.5" height="2.5" fill="#764c48" opacity="0.5"/><rect x="516.6" y="336.4" width="38.5" height="2.5" fill="#764c48" opacity="0.5"/><rect x="529.8" y="403.3" width="12" height="43.5" fill="#704642" opacity="0.4"/></g><g><rect x="561.3" y="334.9" width="36.4" height="177.1" fill="#6a5f57"/><rect x="561.3" y="334.9" width="3" height="177.1" fill="#847971" opacity="0.55"/><rect x="594.7" y="334.9" width="3" height="177.1" fill="#483d35" opacity="0.6"/><rect x="566.3" y="363.3" width="26.4" height="2.5" fill="#92877f" opacity="0.5"/><rect x="566.3" y="370.3" width="26.4" height="2.5" fill="#92877f" opacity="0.5"/><rect x="573.5" y="423.5" width="12" height="35.4" fill="#8c8179" opacity="0.4"/></g><g><rect x="599.3" y="305.8" width="53.3" height="206.2" fill="#78534f"/><rect x="599.3" y="305.8" width="3" height="206.2" fill="#926d69" opacity="0.55"/><rect x="649.7" y="305.8" width="3" height="206.2" fill="#56312d" opacity="0.6"/><rect x="604.3" y="338.8" width="43.3" height="2.5" fill="#a07b77" opacity="0.5"/><rect x="604.3" y="345.8" width="43.3" height="2.5" fill="#a07b77" opacity="0.5"/><rect x="620.0" y="408.9" width="12" height="41.2" fill="#9a7571" opacity="0.4"/></g><g><rect x="654.8" y="323.3" width="49.6" height="188.7" fill="#9d4e4e"/><rect x="654.8" y="323.3" width="3" height="188.7" fill="#b76868" opacity="0.55"/><rect x="701.4" y="323.3" width="3" height="188.7" fill="#7b2c2c" opacity="0.6"/><rect x="659.8" y="353.5" width="39.6" height="2.5" fill="#c57676" opacity="0.5"/><rect x="659.8" y="360.5" width="39.6" height="2.5" fill="#c57676" opacity="0.5"/><rect x="673.6" y="417.6" width="12" height="37.7" fill="#bf7070" opacity="0.4"/></g><g><rect x="705.0" y="271.0" width="65.4" height="241.0" fill="#562823"/><rect x="705.0" y="271.0" width="3" height="241.0" fill="#70423d" opacity="0.55"/><rect x="767.5" y="271.0" width="3" height="241.0" fill="#340601" opacity="0.6"/><rect x="710.0" y="309.5" width="55.4" height="2.5" fill="#7e504b" opacity="0.5"/><rect x="710.0" y="316.5" width="55.4" height="2.5" fill="#7e504b" opacity="0.5"/><rect x="731.7" y="391.5" width="12" height="48.2" fill="#784a45" opacity="0.4"/></g><g><rect x="771.1" y="310.0" width="32.5" height="202.0" fill="#9d4e4e"/><rect x="771.1" y="310.0" width="3" height="202.0" fill="#b76868" opacity="0.55"/><rect x="800.6" y="310.0" width="3" height="202.0" fill="#7b2c2c" opacity="0.6"/><rect x="776.1" y="342.3" width="22.5" height="2.5" fill="#c57676" opacity="0.5"/><rect x="776.1" y="349.3" width="22.5" height="2.5" fill="#c57676" opacity="0.5"/></g><g><rect x="804.6" y="295.4" width="50.6" height="216.6" fill="#143546"/><rect x="804.6" y="295.4" width="3" height="216.6" fill="#2e4f60" opacity="0.55"/><rect x="852.2" y="295.4" width="3" height="216.6" fill="#001324" opacity="0.6"/><rect x="809.6" y="330.0" width="40.6" height="2.5" fill="#3c5d6e" opacity="0.5"/><rect x="809.6" y="337.0" width="40.6" height="2.5" fill="#3c5d6e" opacity="0.5"/><rect x="823.9" y="403.7" width="12" height="43.3" fill="#365768" opacity="0.4"/></g><g><rect x="855.7" y="271.3" width="36.0" height="240.7" fill="#6a5f57"/><rect x="855.7" y="271.3" width="3" height="240.7" fill="#847971" opacity="0.55"/><rect x="888.7" y="271.3" width="3" height="240.7" fill="#483d35" opacity="0.6"/><rect x="860.7" y="309.8" width="26.0" height="2.5" fill="#92877f" opacity="0.5"/><rect x="860.7" y="316.8" width="26.0" height="2.5" fill="#92877f" opacity="0.5"/><rect x="867.7" y="391.7" width="12" height="48.1" fill="#8c8179" opacity="0.4"/></g><g><rect x="893.6" y="292.9" width="27.4" height="219.1" fill="#c96464"/><rect x="893.6" y="292.9" width="3" height="219.1" fill="#e37e7e" opacity="0.55"/><rect x="918.0" y="292.9" width="3" height="219.1" fill="#a74242" opacity="0.6"/><rect x="898.6" y="327.9" width="17.4" height="2.5" fill="#f18c8c" opacity="0.5"/><rect x="898.6" y="334.9" width="17.4" height="2.5" fill="#f18c8c" opacity="0.5"/></g><g><rect x="923.5" y="318.2" width="61.7" height="193.8" fill="#b4a092"/><rect x="923.5" y="318.2" width="3" height="193.8" fill="#cebaac" opacity="0.55"/><rect x="982.2" y="318.2" width="3" height="193.8" fill="#927e70" opacity="0.6"/><rect x="928.5" y="349.2" width="51.7" height="2.5" fill="#dcc8ba" opacity="0.5"/><rect x="928.5" y="356.2" width="51.7" height="2.5" fill="#dcc8ba" opacity="0.5"/><rect x="948.3" y="415.1" width="12" height="38.8" fill="#d6c2b4" opacity="0.4"/></g><g><rect x="986.8" y="304.0" width="61.6" height="208.0" fill="#8e6f6c"/><rect x="986.8" y="304.0" width="3" height="208.0" fill="#a88986" opacity="0.55"/><rect x="1045.4" y="304.0" width="3" height="208.0" fill="#6c4d4a" opacity="0.6"/><rect x="991.8" y="337.3" width="51.6" height="2.5" fill="#b69794" opacity="0.5"/><rect x="991.8" y="344.3" width="51.6" height="2.5" fill="#b69794" opacity="0.5"/><rect x="1011.6" y="408.0" width="12" height="41.6" fill="#b0918e" opacity="0.4"/></g><g><rect x="1050.5" y="280.0" width="32.4" height="232.0" fill="#562823"/><rect x="1050.5" y="280.0" width="3" height="232.0" fill="#70423d" opacity="0.55"/><rect x="1080.0" y="280.0" width="3" height="232.0" fill="#340601" opacity="0.6"/><rect x="1055.5" y="317.1" width="22.4" height="2.5" fill="#7e504b" opacity="0.5"/><rect x="1055.5" y="324.1" width="22.4" height="2.5" fill="#7e504b" opacity="0.5"/></g><g><rect x="1083.5" y="318.8" width="49.5" height="193.2" fill="#8b7c71"/><rect x="1083.5" y="318.8" width="3" height="193.2" fill="#a5968b" opacity="0.55"/><rect x="1130.0" y="318.8" width="3" height="193.2" fill="#695a4f" opacity="0.6"/><rect x="1088.5" y="349.8" width="39.5" height="2.5" fill="#b3a499" opacity="0.5"/><rect x="1088.5" y="356.8" width="39.5" height="2.5" fill="#b3a499" opacity="0.5"/><rect x="1102.2" y="415.4" width="12" height="38.6" fill="#ad9e93" opacity="0.4"/></g><g><rect x="1134.3" y="297.4" width="51.4" height="214.6" fill="#a85a4a"/><rect x="1134.3" y="297.4" width="3" height="214.6" fill="#c27464" opacity="0.55"/><rect x="1182.7" y="297.4" width="3" height="214.6" fill="#863828" opacity="0.6"/><rect x="1139.3" y="331.7" width="41.4" height="2.5" fill="#d08272" opacity="0.5"/><rect x="1139.3" y="338.7" width="41.4" height="2.5" fill="#d08272" opacity="0.5"/><rect x="1154.0" y="404.7" width="12" height="42.9" fill="#ca7c6c" opacity="0.4"/></g><g><rect x="1186.9" y="312.4" width="42.6" height="199.6" fill="#3d1c19"/><rect x="1186.9" y="312.4" width="3" height="199.6" fill="#573633" opacity="0.55"/><rect x="1226.4" y="312.4" width="3" height="199.6" fill="#1b0000" opacity="0.6"/><rect x="1191.9" y="344.3" width="32.6" height="2.5" fill="#654441" opacity="0.5"/><rect x="1191.9" y="351.3" width="32.6" height="2.5" fill="#654441" opacity="0.5"/><rect x="1202.2" y="412.2" width="12" height="39.9" fill="#5f3e3b" opacity="0.4"/></g><g><rect x="1231.2" y="293.4" width="43.4" height="218.6" fill="#496e82"/><rect x="1231.2" y="293.4" width="3" height="218.6" fill="#63889c" opacity="0.55"/><rect x="1271.6" y="293.4" width="3" height="218.6" fill="#274c60" opacity="0.6"/><rect x="1236.2" y="328.4" width="33.4" height="2.5" fill="#7196aa" opacity="0.5"/><rect x="1236.2" y="335.4" width="33.4" height="2.5" fill="#7196aa" opacity="0.5"/><rect x="1246.9" y="402.7" width="12" height="43.7" fill="#6b90a4" opacity="0.4"/></g><g><rect x="1275.8" y="309.1" width="40.4" height="202.9" fill="#9d4e4e"/><rect x="1275.8" y="309.1" width="3" height="202.9" fill="#b76868" opacity="0.55"/><rect x="1313.2" y="309.1" width="3" height="202.9" fill="#7b2c2c" opacity="0.6"/><rect x="1280.8" y="341.6" width="30.4" height="2.5" fill="#c57676" opacity="0.5"/><rect x="1280.8" y="348.6" width="30.4" height="2.5" fill="#c57676" opacity="0.5"/><rect x="1290.0" y="410.6" width="12" height="40.6" fill="#bf7070" opacity="0.4"/></g><g><rect x="1318.5" y="314.2" width="56.1" height="197.8" fill="#c96464"/><rect x="1318.5" y="314.2" width="3" height="197.8" fill="#e37e7e" opacity="0.55"/><rect x="1371.6" y="314.2" width="3" height="197.8" fill="#a74242" opacity="0.6"/><rect x="1323.5" y="345.8" width="46.1" height="2.5" fill="#f18c8c" opacity="0.5"/><rect x="1323.5" y="352.8" width="46.1" height="2.5" fill="#f18c8c" opacity="0.5"/><rect x="1340.6" y="413.1" width="12" height="39.6" fill="#eb8686" opacity="0.4"/></g><g><rect x="1375.4" y="326.7" width="36.2" height="185.3" fill="#9d4e4e"/><rect x="1375.4" y="326.7" width="3" height="185.3" fill="#b76868" opacity="0.55"/><rect x="1408.6" y="326.7" width="3" height="185.3" fill="#7b2c2c" opacity="0.6"/><rect x="1380.4" y="356.3" width="26.2" height="2.5" fill="#c57676" opacity="0.5"/><rect x="1380.4" y="363.3" width="26.2" height="2.5" fill="#c57676" opacity="0.5"/><rect x="1387.5" y="419.3" width="12" height="37.1" fill="#bf7070" opacity="0.4"/></g><g><rect x="1412.1" y="337.1" width="36.5" height="174.9" fill="#3d1c19"/><rect x="1412.1" y="337.1" width="3" height="174.9" fill="#573633" opacity="0.55"/><rect x="1445.6" y="337.1" width="3" height="174.9" fill="#1b0000" opacity="0.6"/><rect x="1417.1" y="365.1" width="26.5" height="2.5" fill="#654441" opacity="0.5"/><rect x="1417.1" y="372.1" width="26.5" height="2.5" fill="#654441" opacity="0.5"/><rect x="1424.4" y="424.6" width="12" height="35.0" fill="#5f3e3b" opacity="0.4"/></g><g><rect x="1450.1" y="304.5" width="55.3" height="207.5" fill="#c96464"/><rect x="1450.1" y="304.5" width="3" height="207.5" fill="#e37e7e" opacity="0.55"/><rect x="1502.4" y="304.5" width="3" height="207.5" fill="#a74242" opacity="0.6"/><rect x="1455.1" y="337.7" width="45.3" height="2.5" fill="#f18c8c" opacity="0.5"/><rect x="1455.1" y="344.7" width="45.3" height="2.5" fill="#f18c8c" opacity="0.5"/><rect x="1471.7" y="408.2" width="12" height="41.5" fill="#eb8686" opacity="0.4"/></g><g><rect x="1507.2" y="313.6" width="37.4" height="198.4" fill="#e6cdbb"/><rect x="1507.2" y="313.6" width="3" height="198.4" fill="#ffe7d5" opacity="0.55"/><rect x="1541.6" y="313.6" width="3" height="198.4" fill="#c4ab99" opacity="0.6"/><rect x="1512.2" y="345.3" width="27.4" height="2.5" fill="#fff5e3" opacity="0.5"/><rect x="1512.2" y="352.3" width="27.4" height="2.5" fill="#fff5e3" opacity="0.5"/><rect x="1519.9" y="412.8" width="12" height="39.7" fill="#ffefdd" opacity="0.4"/></g><g><rect x="1545.7" y="272.8" width="33.7" height="239.2" fill="#6a5f57"/><rect x="1545.7" y="272.8" width="3" height="239.2" fill="#847971" opacity="0.55"/><rect x="1576.4" y="272.8" width="3" height="239.2" fill="#483d35" opacity="0.6"/><rect x="1550.7" y="311.1" width="23.7" height="2.5" fill="#92877f" opacity="0.5"/><rect x="1550.7" y="318.1" width="23.7" height="2.5" fill="#92877f" opacity="0.5"/></g><g><rect x="1580.0" y="319.5" width="59.7" height="192.5" fill="#8e6f6c"/><rect x="1580.0" y="319.5" width="3" height="192.5" fill="#a88986" opacity="0.55"/><rect x="1636.7" y="319.5" width="3" height="192.5" fill="#6c4d4a" opacity="0.6"/><rect x="1585.0" y="350.3" width="49.7" height="2.5" fill="#b69794" opacity="0.5"/><rect x="1585.0" y="357.3" width="49.7" height="2.5" fill="#b69794" opacity="0.5"/><rect x="1603.9" y="415.7" width="12" height="38.5" fill="#b0918e" opacity="0.4"/></g><rect x="0" y="512" width="1600" height="10" fill="#4e2420" opacity="0.85"/><rect x="0" y="522" width="1600" height="6" fill="#2f1613" opacity="0.5"/><rect width="1600" height="520" fill="url(#warm)"/></svg>