<svg width="50" height="50" viewBox="0 0 50 50" fill="none" xmlns="http://www.w3.org/2000/svg">
<g clip-path="url(#clip0_6_1034)">
<path d="M49.9613 49.7163L49.942 49.4841L49.9226 49.1811L49.8904 48.8264V48.7555L49.8388 48.4202L49.7872 48.0526L49.7679 47.9623L49.7163 47.5368L49.5744 46.8339L49.4841 46.3245L49.31 45.6345L49.1875 45.1251L48.9941 44.4545L48.8522 43.9451L48.6201 43.2744L48.446 42.7779L48.1816 42.146L47.9688 41.6366L47.6851 41.0175L47.4529 40.5081L47.1563 39.9407L46.8726 39.4119L46.5566 38.8832L46.2729 38.406L46.2535 38.3544L45.6216 37.3872L45.57 37.3356L46.0794 36.4199L46.202 36.2071L46.3761 35.8396L46.7823 35.0464L46.8855 34.782L47.2917 33.847L47.3433 33.7052L47.7302 32.6283L47.7495 32.5961L48.0849 31.4676L48.1042 31.3967L48.3879 30.3198L48.4202 30.1457L48.6136 29.1591L48.6652 28.8754L48.7877 27.9791L48.8393 27.5922L48.8909 26.7991L48.9425 26.3026L48.9618 25.5997L48.9812 25L48.9618 24.4197L48.9425 23.7168L48.8909 23.2203L48.8393 22.4271L48.7877 22.0402L48.6652 21.1439L48.6136 20.8602L48.4202 19.8736L48.3879 19.6995L48.1042 18.6226L48.0849 18.5517L47.7495 17.4233L47.7302 17.3717L47.3433 16.3142L47.2917 16.153L46.8855 15.218L46.7823 14.9729L46.3761 14.1798L46.202 13.8122L46.0601 13.5672L45.5636 12.6838L45.6152 12.6128L46.2471 11.6585L46.2664 11.6069L46.5502 11.1297L46.8661 10.5816L47.1499 10.0722L47.4465 9.49187L47.6786 8.98246L47.9623 8.38277L48.1751 7.87336L48.4202 7.24142L48.6136 6.73201L48.8458 6.08073L48.9876 5.57132L49.1811 4.9007L49.3036 4.39128L49.4777 3.70132L49.568 3.1919L49.7098 2.48904L49.7614 2.06345L49.7808 1.97317L49.8323 1.60562L49.8839 1.27031V1.18004L49.9162 0.844725L49.9355 0.548104L49.9549 0.315966L49.9742 0.141862L49.9935 0.0386897L48.7619 0.141862L47.5432 0.315966L46.3245 0.548104L45.1251 0.844725L43.9451 1.18004L43.7129 1.27031L42.7779 1.60562L41.8429 1.97317L41.6301 2.06345L41.3464 2.18597L40.7274 2.48904L40.5146 2.57931L40.0374 2.82435L39.4184 3.15966L39.2765 3.24994L38.464 3.70776L38.3415 3.77869L37.6515 4.23652L37.4194 4.39773L37.3162 4.46866L37.1937 4.39773L36.6649 4.09466L36.1878 3.83028L35.975 3.72711L35.343 3.41114L35.0271 3.24994L34.7949 3.15966L34.3565 2.96621L34.0598 2.84369L33.8986 2.77276L33.847 2.74052L32.6283 2.30204L31.3774 1.93449L30.1264 1.61852L28.8561 1.37348L27.5664 1.19938L26.2768 1.09621L24.9871 1.06397L23.6845 1.09621L22.3949 1.19938L21.1052 1.37348L19.8349 1.61852L18.584 1.93449L17.3523 2.30204L16.1336 2.74052L16.0627 2.77276L15.9208 2.84369L15.6242 2.96621L15.1664 3.15966L14.9342 3.24994L14.6312 3.41114L13.9992 3.72711L13.7671 3.83028L13.2899 4.09466L12.6386 4.46221L12.3227 4.23007L11.6198 3.77225L11.4973 3.70132L10.7042 3.24349L10.5623 3.15321L9.93036 2.8179L9.47253 2.57287L9.24039 2.48259L8.6407 2.17952L8.34408 2.057L8.13129 1.96673L7.19629 1.57983L6.26128 1.26386L6.02915 1.17359L4.84911 0.838277L3.64973 0.541656L2.431 0.309518L1.23162 0.103173L0.0193449 0H0L0.0193449 0.103173L0.0386897 0.277276L0.0580346 0.509414L0.0773794 0.806036L0.109621 1.14135L0.128966 1.23162L0.161207 1.54759L0.212793 1.93449L0.283725 2.4439L0.425587 3.14676L0.515863 3.65618L0.689966 4.34614L0.812484 4.85556L1.00593 5.52618L1.16714 6.03559L1.39928 6.68687L1.57338 7.19629L1.81842 7.82822L2.03121 8.33763L2.31493 8.95667L2.54707 9.46608L2.86304 10.0335L3.12742 10.5623L3.44338 11.091L3.72711 11.5682L3.75935 11.6198L4.37839 12.5742L4.42997 12.6451L3.92056 13.5607L3.79804 13.7735L3.62394 14.1411L3.23704 14.9342L3.09518 15.2373L2.72762 16.1336L2.63735 16.3657L2.2698 17.333L2.21821 17.5264L1.90224 18.584L1.87 18.7065L1.58628 19.8349L1.56693 19.9059L1.33479 21.1052V21.1246L1.17359 22.3433V22.3949L1.07042 23.5749V23.6781L1.03817 24.8259V24.9678L1.05752 26.064L1.07686 26.2768L1.14779 27.302L1.18004 27.5664L1.30255 28.5337L1.33479 28.8496L1.5089 29.7524L1.57983 30.1199L1.79262 30.9518L1.8958 31.3774L2.12793 32.1382L2.2698 32.6154L2.53418 33.3054L2.72762 33.8341L2.97266 34.4532L3.23704 35.0335L3.48207 35.5623L3.79804 36.1813L3.9399 36.4264L4.43642 37.3098L4.38483 37.3807L3.7658 38.3479L3.73356 38.3995L3.44983 38.8767L3.13387 39.4055L2.86949 39.9342L2.55352 40.5017L2.32138 41.0111L2.03766 41.6301L1.82486 42.1395L1.57983 42.7715L1.40573 43.268L1.17359 43.9386L1.01238 44.4351L0.818932 45.1251L0.696415 45.6345L0.522311 46.3245L0.432035 46.8339L0.290173 47.5368L0.219242 48.0462L0.167655 48.4137L0.135414 48.749L0.116069 48.82L0.0838277 49.1746L0.0644828 49.4777L0.045138 49.7098L0.0257931 49.871L0.00644828 49.9935L1.23807 49.871L2.4568 49.7098L3.67552 49.4777L4.8749 49.1746L6.05494 48.82L6.28708 48.749L7.22208 48.4137L8.15708 48.0462L8.36987 47.9559L8.66649 47.8334L9.26618 47.5368L9.49832 47.4465L9.95615 47.2014L10.5881 46.8661L10.7299 46.7759L11.5231 46.318L11.6456 46.2278L12.3485 45.7699L12.6838 45.5571L13.3157 45.9247L13.8122 46.1891L14.025 46.2922L14.6569 46.6082L14.96 46.7694L15.1922 46.8597L15.65 47.0531L15.9466 47.1757L16.0885 47.2466L16.1594 47.2659L17.3781 47.7238L18.6097 48.0913L19.8607 48.4073L21.131 48.6523L22.4207 48.8135L23.7103 48.9167L25.0129 48.9489L26.3026 48.9167L27.5922 48.8135L28.8819 48.6523L30.1522 48.4073L31.4031 48.0913L32.6541 47.7238L33.8535 47.2659L33.9244 47.2466L34.0856 47.1757L34.3823 47.0531L34.8207 46.8597L35.0529 46.7694L35.3688 46.6082L36.0008 46.2922L36.2136 46.1891L36.6907 45.9247L37.342 45.5571L37.6773 45.7699L38.3673 46.2278L38.4898 46.318L39.2829 46.7759L39.4248 46.8661L40.0567 47.2014L40.5146 47.4465L40.7467 47.5368L41.3657 47.8205L41.6495 47.9623L41.8623 48.0526L42.7973 48.4202L43.7323 48.7555L43.9644 48.8264L45.1444 49.1811L46.3438 49.4841L47.5625 49.7163L48.7813 49.8775L50.0129 50L49.9935 49.8775L49.9742 49.7163H49.9613ZM44.8672 14.9536L45.009 15.1986L45.4346 16.1336L45.5055 16.2948L45.9311 17.3523L45.9505 17.4039L46.318 18.5324L46.3374 18.6033L46.6404 19.6802L46.6727 19.8543L46.8855 20.8409L46.9371 21.1246L47.0789 22.0209L47.1305 22.4078L47.2014 23.2009L47.2337 23.6974L47.2659 24.4003V25.5803L47.2337 26.2832L47.2014 26.7797L47.1305 27.5729L47.0789 27.9598L46.9371 28.8561L46.8855 29.1398L46.6727 30.1264L46.6404 30.3005L46.3374 31.3774L46.318 31.4483L45.9505 32.5767L45.9311 32.609L45.5055 33.6858L45.4346 33.8277L45.009 34.7627L44.8672 35.0271L44.4609 35.8202L44.1579 35.4849L43.7 34.9368L43.3841 34.6015L42.9069 34.0921L42.6103 33.7568L42.2943 33.4021L41.959 32.9765L41.7268 32.6928L41.4238 32.2543L41.211 31.9384L40.9982 31.5837L40.7532 31.1452L40.6629 30.9711L40.4501 30.5455L40.3469 30.3134L40.0632 29.6621L39.9923 29.4687L39.7601 28.7465L39.7085 28.6046L39.5151 27.8115L39.4828 27.7083L39.341 26.8764L39.3216 26.8055L39.2314 25.9221V25.8899L39.1991 24.9742L39.2314 24.0585V24.0263L39.3216 23.1622L39.341 23.0913L39.4828 22.2595L39.5151 22.137L39.7085 21.3632L39.7601 21.2213L39.9923 20.4991L40.0632 20.3056L40.3469 19.6544L40.4501 19.4222L40.7145 18.8935L40.7467 18.8225L41.0498 18.2938L41.211 18.0294L41.4947 17.6232L41.7268 17.2685L42.0299 16.901L42.2943 16.5463L42.6812 16.1207L42.9133 15.8757L43.4421 15.3082L43.7065 15.0245L44.203 14.4442L44.4674 14.1411L44.8736 14.9342L44.8672 14.9536ZM40.7596 4.35904L41.0433 4.19783L41.9977 3.74001L42.1589 3.66907L43.3067 3.21125L43.5388 3.12097L44.4738 2.78566L45.3185 2.54062L45.6539 2.45035L46.8532 2.14728L47.5948 2.02476L48.072 1.93449L48.0526 2.02476L47.9817 2.45035L47.8592 3.15321L47.7366 3.66263L47.5625 4.35259L47.4207 4.86201L47.2272 5.53263L47.0531 6.04204L46.8081 6.69332L46.6146 7.20273L46.3503 7.83467L46.1052 8.34408L45.8215 8.94377L45.5378 9.45319L45.2218 10.0335L44.9059 10.5429L44.5705 11.091L44.2159 10.5945L43.8806 10.1689L43.4743 9.67243L43.1584 9.26618L42.7199 8.78901L42.3846 8.42146L41.9267 7.96363L41.5721 7.60898L41.1143 7.18339L40.7274 6.82873L40.2889 6.46118L40.0438 6.26773L39.8311 6.10653L39.0573 5.50683L38.9154 5.41656L39.6569 4.95873L39.9729 4.76528L40.521 4.46221L40.6629 4.39128L40.7854 4.32035L40.7596 4.35904ZM17.4039 4.05597L18.2164 3.79159L18.5324 3.68842L19.6802 3.37245L20.383 3.21125L20.8409 3.12097L22.0209 2.92752L23.2009 2.805L24.4003 2.73407H25.5803L26.7797 2.805L27.9598 2.92752L29.1398 3.12097L29.5976 3.21125L30.3005 3.37245L31.4483 3.68842L31.7642 3.79159L32.5767 4.05597L33.3376 4.35904L33.5117 4.42997L33.6858 4.5009L34.3371 4.80397L34.7756 4.99742L35.6397 5.45525L35.8138 5.54552L35.1238 6.14522L34.9304 6.30642L34.7176 6.49987L34.0856 7.09956L33.8728 7.29301L33.415 7.7186L32.8669 8.14418L32.6928 8.28605L31.9319 8.79546L31.545 9.0276L31.1388 9.25974L30.3069 9.66598L29.5847 9.96905L29.4622 10.0206L28.5981 10.3044L27.7018 10.5365L26.7991 10.6977L25.9028 10.788L24.9871 10.8202L24.0714 10.788L23.1558 10.6977L22.253 10.5365L21.3567 10.3044L20.4926 10.0206L20.1767 9.89812L19.6479 9.66598L18.8161 9.25974L18.3196 8.97601L18.0165 8.80191L17.2556 8.29249L17.0235 8.11839L16.5463 7.73149L16.0691 7.29301L15.8563 7.11891L15.4501 6.73201L15.218 6.51922L15.0052 6.32577L14.8117 6.16456L14.1217 5.56487L14.3152 5.47459L15.1793 5.01677L15.6048 4.82332L16.2561 4.52025L16.4496 4.44932L17.3652 4.08176L17.4039 4.05597ZM5.11349 10.5816L4.79752 10.0529L4.48156 9.48543L4.21718 8.97601L3.91411 8.35698L3.66907 7.84756L3.42404 7.21563L3.21125 6.70622L2.97911 6.05494L2.78566 5.54552L2.59221 4.8749L2.45035 4.36549L2.27624 3.67552L2.17307 3.16611L2.03121 2.46324L1.94093 1.95383L2.41811 2.04411L3.15966 2.16662L4.35904 2.46969L4.7137 2.55997L5.55842 2.805L6.47408 3.14031L6.71911 3.23059L7.84756 3.68842L8.00877 3.75935L8.97601 4.21718L9.38225 4.44932L9.50477 4.52025L10.0529 4.82332L10.3688 5.01677L11.1104 5.47459L10.9685 5.56487L10.1947 6.16456L10.0013 6.32577L9.75625 6.51922L9.49187 6.73201L9.31777 6.89322L8.91153 7.24787L8.4537 7.67346L8.09905 8.02811L7.64122 8.48594L7.30591 8.85349L6.86742 9.33067L6.55146 9.73691L6.14522 10.2334L5.82925 10.659L5.4617 11.1555L5.12639 10.6268L5.11349 10.5816ZM5.13283 35.0464L4.83621 34.4661L4.57183 33.847L4.3397 33.3183L4.09466 32.6283L3.92056 32.1511L3.67552 31.3902L3.553 30.9647L3.34021 30.1328L3.24994 29.7653L3.07583 28.8625L3.02425 28.5466L2.90173 27.5793L2.86949 27.3149L2.77921 26.2897L2.75987 26.0769L2.74052 24.9807V24.8388L2.77276 23.691V23.5878L2.87593 22.4078L2.89528 22.3562L3.06938 21.1375V21.1181L3.31442 19.9188L3.33376 19.8478L3.63038 18.7194L3.66263 18.5969L4.01728 17.5393L4.08821 17.3459L4.45576 16.3786L4.55894 16.1465L4.96518 15.2502L5.12639 14.9471L5.53263 14.154L5.82925 14.4893L6.35801 15.1083L6.60304 15.3727L7.22208 16.024L7.38329 16.1981L7.82177 16.7075L8.03456 16.9912L8.38922 17.4491L8.56332 17.7134L8.89863 18.2229L8.98891 18.3841L9.34356 19.0031L9.36291 19.0224L9.53701 19.4287L9.74981 19.8672L9.92391 20.3056L10.0851 20.7312L10.2463 21.2278L10.3495 21.6146L10.472 22.1628L10.5623 22.5174L10.6526 23.0978L10.7042 23.4331L10.7557 24.0328L10.788 24.3487V25.2837L10.7557 25.935L10.7364 26.1994L10.6461 26.8893L10.6268 27.1215L10.4656 27.8243L10.4333 28.0371L10.2399 28.7593L10.1883 28.9206L9.92391 29.6621L9.89167 29.804L9.55636 30.5649L9.50477 30.6551L9.29198 31.0807L9.07918 31.4676L8.93732 31.6998L8.58267 32.2672L8.51173 32.3704L8.05391 33.0023L7.98298 33.0926L7.45422 33.7245L7.3317 33.847L6.82228 34.3758L6.48697 34.6724L6.11942 34.9884L5.42946 35.5365L5.39721 35.5687L5.13283 35.04V35.0464ZM7.21563 38.4124L7.18339 38.3608L6.51277 37.3936L6.56435 37.3227L7.26722 36.4393L7.49935 36.1942L8.0668 35.5752L8.09905 35.5429L8.6278 34.9948L8.96311 34.6789L9.27908 34.3823L9.87877 33.8535L10.04 33.731L10.8331 33.099L10.9363 33.0088L11.8197 32.3768L11.9809 32.2737L12.8643 31.7062L13.2512 31.4741L13.9218 31.0872L14.7859 30.6616L14.9471 30.5713L15.0181 30.5391L16.1465 30.0426L16.5141 29.9007L17.275 29.6041L18.2809 29.2881L18.455 29.2365L19.635 28.9206L20.5378 28.7271L20.8409 28.6755L20.8924 28.237L20.9634 27.8115V27.7921L20.9956 27.4375L21.0279 27.1344L21.0472 26.9022V26.8829L20.9763 26.9022L19.7769 27.1344L18.5259 27.4375L17.3459 27.7921L17.275 27.8115L16.0562 28.237L14.9987 28.6755L14.8568 28.7271L14.4506 28.9206L13.7993 29.2365L13.6768 29.2881L13.0771 29.6041L12.5484 29.9007L12.3033 30.0426L11.4908 30.5391L11.4393 30.5713L11.723 29.8104L11.7746 29.6686L11.9874 28.927L12.0389 28.7658L12.2002 28.0436L12.2517 27.8308L12.3743 27.1279L12.4065 26.8958L12.4774 26.2058L12.4968 25.9414L12.5161 25.2902L12.5355 24.9871L12.5161 24.3552L12.4968 24.0392L12.4452 23.4395L12.4129 23.1042L12.3098 22.5239L12.2582 22.1692L12.1357 21.6211L12.0454 21.2342L11.9035 20.7377L11.781 20.3121L11.6069 19.8736L11.4457 19.4351L11.6778 19.577L12.4903 20.0735L12.5419 20.1058L13.2641 20.4926L13.6704 20.7054L13.9863 20.8666L14.6183 21.1697L14.8117 21.26L15.1664 21.4212L15.5726 21.5824L15.837 21.6856V21.7049L15.9273 21.7243L15.9982 21.7565L17.2169 22.195L18.4356 22.5497L19.6866 22.8656L20.9376 23.0978L22.2079 23.2719L23.4782 23.3944L24.2198 23.4137L24.7679 23.4331L26.0575 23.4137V23.2719L26.0769 23.0978L26.0962 22.8656L26.1156 22.5497L26.1671 22.195L26.2187 21.7565V21.7049L24.9678 21.7243L23.9425 21.7049L23.7103 21.6856L22.4594 21.5824L21.2278 21.4212L20.4669 21.26L19.9897 21.1697L18.771 20.8666L18.2744 20.7054L17.5716 20.4926L16.4947 20.1058L16.4044 20.0735L15.2373 19.577L14.9729 19.4351L14.1604 19.0289L14.1282 19.0095L13.032 18.3905L12.7676 18.2293L11.9745 17.7199L11.5876 17.4555L10.9556 16.9977L10.601 16.714L9.96905 16.2045L9.75625 16.0304L9.03405 15.3792L8.76967 15.1148L8.15063 14.4957L7.83467 14.1604L7.5187 13.7929L7.30591 13.5801L6.5837 12.6644L6.53211 12.5935L7.20273 11.6392L7.23498 11.5876L7.62187 11.1104L8.00877 10.6139L8.39567 10.1883L8.83415 9.69177L9.22105 9.28553L9.71756 8.80836L10.1238 8.4408L10.6332 7.98298L11.0717 7.62832L11.6005 7.20273L12.097 6.84808L12.3291 6.68687L12.6322 6.47408L12.8966 6.68687L13.3544 7.07377L13.5865 7.24787L14.0637 7.68636L14.4893 8.07325L14.6634 8.24736L15.1922 8.75677L15.3534 8.93087L15.6177 9.2146L15.9853 9.62084L16.1787 9.85298L16.2819 9.9755L16.5141 10.2592L16.6882 10.4914L16.8107 10.6526L16.901 10.7428L16.9203 10.7751L16.9396 10.8073L17.0299 10.9105L17.3846 11.3877L17.6683 11.7939L18.1261 12.4968L18.3389 12.8127L18.8161 13.6446L18.958 13.8896L19.4158 14.8053L19.5061 14.9794L19.9639 16.0046L19.9961 16.0949L20.4346 17.2427L20.8022 18.4099L20.8215 18.4808L21.1246 19.6092L21.1568 19.7511L21.3696 20.8086L22.253 20.9311L23.1558 21.0214L23.1364 20.9311L23.1171 20.8086L22.9043 19.7511L22.8721 19.6092L22.6077 18.4808L22.5883 18.4099L22.2337 17.2427L21.8274 16.0949L21.8081 16.0046L21.3825 14.9794L21.3116 14.8053L20.8731 13.8896L20.7506 13.6446L20.3121 12.8127L20.138 12.4968L19.7124 11.7939L19.4674 11.3877L20.3637 11.723L21.2664 12.0067L22.2014 12.2195L23.1364 12.3614L24.0908 12.4645L25.0451 12.4839L25.9995 12.4645L26.9345 12.3614L27.8888 12.2195L28.8045 12.0067L29.7201 11.723L30.6036 11.3877L30.2876 11.9164L29.9523 12.4839L29.6686 12.9804L29.3332 13.6123L29.1205 14.0702L28.7851 14.773L28.611 15.1986L28.2951 15.9595L28.1532 16.3464L27.8501 17.1589L27.747 17.5264L27.5019 18.3905L27.4117 18.7258L27.1795 19.6286L27.1279 19.9445L26.9538 20.8989L26.9022 21.1633L26.7797 22.1692L26.7475 22.4142L26.6572 23.4395V23.6717L26.625 24.7292V24.9226L26.6443 25.9995L27.5084 26.0704L28.3531 26.1736V25.9995L28.3338 24.9226V24.7292L28.366 23.6717L28.3853 23.4395L28.4756 22.4142L28.5079 22.1692L28.6497 21.1633L28.7013 20.8989L28.8754 19.9445L28.9463 19.6286L29.1785 18.7258L29.2817 18.3905L29.546 17.5264L29.6879 17.1589L29.991 16.3464L30.1522 15.9595L30.4875 15.1986L30.6809 14.773L31.0356 14.0702L31.3 13.6123L31.6546 12.9804L31.9706 12.4839L32.3252 11.9164L32.6928 11.3877L33.0475 10.9105L33.1377 10.8073L33.1571 10.7751L33.1893 10.7428L33.2603 10.6526L33.3828 10.4914L33.5762 10.2592L33.789 9.9755L33.8406 9.92391L34.105 9.62084L34.4596 9.2146L34.6724 8.98246L34.9046 8.75032L35.414 8.24091L35.5558 8.09905L36.0137 7.67346L36.4908 7.24787L36.7359 7.05442L37.4581 6.45473L37.9675 6.82228L38.464 7.17694L38.9928 7.60253L39.4313 7.95718L39.9407 8.41501L40.3469 8.78256L40.8434 9.25974L41.2303 9.66598L41.6688 10.1625L42.0557 10.5881L42.4426 11.0846L42.8295 11.5618L42.8617 11.6134L43.5517 12.5677L43.5001 12.6386L42.7779 13.5221L42.5458 13.7671L42.2298 14.1346L41.9461 14.4377L41.3657 15.0181L41.082 15.3018L40.463 15.8692L40.1599 16.1143L39.6505 16.5398L39.212 16.8945L38.7026 17.2621L38.2254 17.6167L37.5935 18.023L37.2066 18.2873L36.2716 18.8161L36.1297 18.887L35.1045 19.4158L35.0335 19.448L33.9244 19.9445L33.5569 20.0864L32.7831 20.383L31.7771 20.699L31.6159 20.7506L30.4166 21.0665L29.5202 21.2406L29.2172 21.3116L29.1656 21.7372L29.0947 22.1756V22.195L29.0624 22.5497L29.0302 22.8527L29.0108 23.0849V23.1042L29.0818 23.0849L30.2811 22.8527L31.5515 22.5497L32.7186 22.195L32.7895 22.1756L34.0211 21.7372L35.0593 21.3116L35.2205 21.2406L35.6074 21.0665L36.278 20.7506L36.3812 20.699L36.9809 20.383L37.529 20.0864L37.7612 19.9445L38.5736 19.448L38.6252 19.4158L38.5543 19.6479L38.3093 20.2992L38.2577 20.4926L38.0255 21.2149L37.9933 21.3567L37.8192 22.1305L37.7998 22.253L37.6773 23.0849L37.658 23.1558L37.5677 24.0199V24.0521L37.5484 24.9678L37.5677 25.8834V25.9157L37.658 26.7991L37.6773 26.87L37.7998 27.7018L37.8192 27.805L37.9933 28.5981L38.0255 28.74L38.2577 29.4622L38.3093 29.6557L38.5543 30.3069L38.6446 30.5391L38.4124 30.3972L37.5999 29.9007L37.5484 29.8685L36.8068 29.4816L36.4199 29.2688L36.0846 29.1076L35.4527 28.8045L35.2592 28.7013L34.9046 28.5595L34.4983 28.3853L34.2533 28.2951L34.163 28.2435L34.0727 28.2241L32.8734 27.7857L31.6417 27.4181L30.4101 27.115L29.1398 26.87L27.8695 26.6959L26.5992 26.5927L25.8576 26.5605L25.3095 26.5411L24.0392 26.5605V26.5927L24.0199 26.6959L24.0005 26.87L23.9812 27.115L23.9618 27.4181L23.9296 27.7857L23.878 28.2241V28.2435L23.8587 28.2757L25.1096 28.2435L26.3606 28.2951L27.6116 28.3853L28.8625 28.5595L29.6041 28.7013L30.0812 28.8045L31.3 29.1076L31.8094 29.2688L32.4994 29.4816L33.5956 29.8685L33.6858 29.9007L34.8336 30.3972L35.1174 30.5391L35.9621 30.9647L36.2652 31.1388L37.0583 31.5772L37.6064 31.9319L38.1158 32.2479L38.7155 32.6864L39.1217 32.9701L39.6698 33.3957L40.1083 33.7503L40.4759 34.0856L41.0433 34.595L41.3786 34.9304L41.9267 35.4785L42.2427 35.8138L42.5587 36.1813L42.7715 36.3941L43.513 37.3098L43.5646 37.3614L42.8746 38.3286L42.8424 38.3802L42.4555 38.8574L42.0686 39.3539L41.6817 39.7795L41.2432 40.276L40.8563 40.6822L40.3598 41.1594L39.9536 41.527L39.4442 41.9848L39.0057 42.3394L38.4769 42.765L37.9804 43.1197L37.471 43.4743L36.7488 42.894L36.5166 42.7199L36.0201 42.2814L35.5945 41.8945L35.4204 41.7204L34.911 41.211L34.7369 41.0369L34.4725 40.7338L34.1179 40.3469L33.9051 40.1148L33.8148 39.9923L33.5827 39.7085L33.3892 39.4764L33.2667 39.3152L33.1958 39.2249L33.1635 39.1927L33.1442 39.1604L33.0539 39.0573L32.6992 38.5607L32.5767 38.3995L32.4155 38.1674L31.9577 37.4645L31.7449 37.1292L31.2871 36.3167L31.1452 36.0717L30.668 35.1367L30.5778 34.9755L30.1199 33.9373L30.0877 33.8664L29.6621 32.7186H29.6428L29.2752 31.5386L29.2559 31.487L28.9528 30.3585L28.9335 30.2167L28.7013 29.1591L27.8179 29.0366L26.9216 28.9463L26.9409 29.0366L26.9732 29.1591L27.1666 30.2167L27.1989 30.3585L27.4632 31.487L27.4826 31.5386L27.8372 32.7186L28.2435 33.8664L28.2757 33.9373L28.7013 34.9755L28.7722 35.1367L29.2107 36.0717L29.3139 36.3167L29.7524 37.1292L29.9265 37.4645L30.365 38.1674L30.5068 38.3995L30.5971 38.5607L30.1393 38.3995L29.7137 38.2383L28.798 37.9546L27.8824 37.7418L26.928 37.5806L25.993 37.4903L25.0387 37.4581L24.0843 37.4903L23.13 37.5806L22.195 37.7418L21.26 37.9546L20.3572 38.2383L19.9188 38.3995L19.4609 38.5607L19.5641 38.3995L19.7769 38.032L20.1315 37.4645L20.3959 36.968L20.7312 36.349L20.9634 35.8718L21.2987 35.1818L21.4728 34.7563L21.7694 33.9954L21.9113 33.6085L22.2143 32.7766L22.3175 32.422L22.5819 31.5579L22.6528 31.2226L22.885 30.3069L22.9365 30.0039L23.13 29.0495L23.1622 28.7658L23.3041 27.7792L23.3234 27.5342L23.4137 26.5089L23.4331 26.2768L23.4653 25.2192V25.0258L23.446 23.9296L22.5819 23.878L21.7178 23.7748V23.936L21.7501 25.0322L21.7307 25.2257L21.6985 26.2832L21.6791 26.5153L21.6082 27.5406L21.576 27.7857L21.4341 28.7722L21.3825 29.056L21.1891 30.0103L21.1181 30.3134L20.886 31.229L20.7828 31.5644L20.5184 32.4284L20.3959 32.7831L20.0929 33.6149L19.9188 34.0018L19.6028 34.7627L19.39 35.1883L19.0353 35.8783L18.7903 36.3554L18.4356 36.9745L18.1197 37.471L17.7521 38.0384L17.5071 38.406L17.3846 38.5672L17.0299 39.0637L16.9396 39.1669L16.9203 39.1991L16.901 39.2314L16.8107 39.3216L16.6882 39.4828L16.5141 39.715L16.2819 39.9987L16.2497 40.0503L15.9853 40.3534L15.6177 40.7403L15.4243 40.9853L15.1922 41.2174L14.6827 41.7268L14.5215 41.8687L14.0637 42.2943L13.6059 42.7199L13.3608 42.9133L12.6386 43.4937L12.1292 43.139L11.6198 42.7844L11.1104 42.3588L10.6526 42.0041L10.1432 41.5463L9.73691 41.1787L9.24039 40.6822L8.85349 40.2953L8.41501 39.7988L8.02811 39.3732L7.64122 38.8767L7.25432 38.3995L7.21563 38.4124ZM8.97601 45.7828L8.00877 46.2406L7.86691 46.3309L6.71911 46.7887L6.47408 46.879L5.55842 47.2143L4.7137 47.4594L4.35904 47.5496L3.15966 47.8463L2.41811 47.9688L1.94093 48.0591L2.03121 47.5496L2.17307 46.8468L2.27624 46.3374L2.45035 45.6474L2.59221 45.138L2.78566 44.448L2.97911 43.9515L3.21125 43.2809L3.42404 42.7844L3.66907 42.1524L3.91411 41.643L4.21718 41.024L4.48156 40.5146L4.79752 39.9471L5.11349 39.4184L5.4488 38.8896L5.81635 39.3861L6.13232 39.8117L6.53856 40.3082L6.85453 40.6951L7.29301 41.1916L7.62832 41.5592L8.08615 42.017L8.4408 42.3717L8.91798 42.7973L9.30487 43.1519L9.74336 43.5066L9.98839 43.7194L10.1818 43.8806L10.975 44.4803L11.0975 44.5705L10.3753 45.0284L10.04 45.2218L9.49187 45.5249L9.36936 45.5958L8.96311 45.8086L8.97601 45.7828ZM32.5896 45.944L31.7771 46.2084L31.4612 46.3116L30.3134 46.6275L29.6105 46.7887L29.1527 46.879L27.9727 47.0725L26.7926 47.195L25.5932 47.2659H24.4132L23.2138 47.195L22.0338 47.0725L20.8666 46.879L20.4088 46.7887L19.706 46.6275L18.5453 46.3116L18.2422 46.2084L17.4104 45.944L16.4947 45.5765L16.3013 45.5055L15.65 45.2025L15.2244 45.009L14.3603 44.5512L14.1669 44.4609L14.8568 43.8612L15.0503 43.7L15.2631 43.4872L15.895 42.9069L16.1272 42.7134L16.585 42.2878L17.1137 41.8623L17.2878 41.7204L18.0487 41.211L18.455 40.9788L18.8419 40.7338L19.6737 40.3469L20.4153 40.0438L20.5184 39.9923L21.3825 39.7085L22.2788 39.4764L23.1816 39.3152L24.0972 39.2249L25.0129 39.1927L25.9286 39.2249L26.8249 39.3152L27.7276 39.4764L28.6239 39.7085L29.488 39.9923L29.804 40.1148L30.3327 40.3469L31.1646 40.7338L31.6611 41.0369L31.9641 41.211L32.725 41.7204L32.9572 41.8945L33.4537 42.2814L33.9309 42.7199L34.1243 42.894L34.7563 43.4743L34.969 43.6871L35.1625 43.8483L35.8525 44.448L35.659 44.5383L34.7949 44.9961L34.3694 45.1896L33.7181 45.4926L33.544 45.5636L32.609 45.9311L32.5896 45.944ZM47.5819 47.9688L46.8403 47.8269L45.641 47.5432L45.2863 47.4529L44.4545 47.2079L43.5195 46.8726L43.2873 46.7823L42.1395 46.3245L41.9783 46.2342L41.0111 45.7764L40.6242 45.5636L40.4823 45.4926L39.9342 45.1896L39.6183 44.9961L38.8767 44.5383L39.0186 44.448L39.7924 43.8483L40.0052 43.6871L40.2502 43.4743L40.6887 43.1197L41.0756 42.765L41.5334 42.3394L41.8881 41.9848L42.3459 41.527L42.6812 41.1594L43.1197 40.6822L43.4356 40.276L43.8419 39.7795L44.1772 39.3539L44.5318 38.8574L44.8672 39.3861L45.1831 39.9149L45.4991 40.4823L45.7828 40.9917L46.0665 41.6108L46.3116 42.1202L46.576 42.7521L46.7694 43.2486L47.0144 43.9193L47.1885 44.4287L47.382 45.0993L47.5239 45.6087L47.698 46.2987L47.8205 46.8081L47.943 47.511L48.0139 47.9365L48.0333 48.0268L47.5561 47.9365L47.5819 47.9688Z" fill="#562823"/>
<path d="M23.2074 7.46066L23.3686 7.77663L23.5814 8.06036L23.8457 8.28605L24.1424 8.48594L24.4777 8.60846L24.8323 8.67939H25.187L25.5223 8.60846L25.8576 8.48594L26.1542 8.28605L26.4186 8.06036L26.6314 7.77663L26.7926 7.46066L26.8958 7.12535L26.9151 6.7707L26.8958 6.42249L26.7926 6.06784L26.6314 5.75187L26.4186 5.46814L26.1542 5.23601L25.8576 5.04256L25.5223 4.92004L25.187 4.84911H24.8323L24.4777 4.92004L24.1424 5.04256L23.8457 5.23601L23.5814 5.46814L23.3686 5.75187L23.2074 6.06784L23.1235 6.42249L23.0848 6.7707L23.1235 7.12535L23.2074 7.46066Z" fill="#562823"/>
<path d="M26.2768 16.1014L26.3155 15.8563L26.2768 15.6242L26.2252 15.3985L26.122 15.1664L25.9608 14.9729L25.7867 14.8117L25.5933 14.6892L25.3611 14.6054L25.129 14.5667H24.884L24.6389 14.6054L24.4261 14.6892L24.2133 14.8117L24.0392 14.9729L23.8974 15.1664L23.7942 15.3985L23.7233 15.6242L23.7039 15.8563L23.7233 16.1014L23.7942 16.3335L23.8974 16.5398L24.0392 16.7397L24.2133 16.8945L24.4261 17.0364L24.6389 17.1266L24.884 17.1589H25.129L25.3611 17.1266L25.5933 17.0364L25.7867 16.8945L25.9608 16.7397L26.122 16.5398L26.2252 16.3335L26.2768 16.1014Z" fill="#562823"/>
<path d="M43.7581 23.1558L43.4034 23.0849H43.0488L42.7134 23.1558L42.3781 23.2783L42.0815 23.4718L41.8171 23.7039L41.6043 23.9876L41.4431 24.3036L41.34 24.6389L41.3206 24.9935L41.34 25.3418L41.4431 25.6964L41.6043 26.0124L41.8171 26.2961L42.0815 26.5282L42.3781 26.7217L42.7134 26.8442L43.0488 26.9151H43.4034L43.7581 26.8442L44.0934 26.7217L44.39 26.5282L44.6544 26.2961L44.8672 26.0124L45.0284 25.6964L45.1122 25.3418L45.1509 24.9935L45.1122 24.6389L45.0284 24.3036L44.8672 23.9876L44.6544 23.7039L44.39 23.4718L44.0934 23.2783L43.7581 23.1558Z" fill="#562823"/>
<path d="M17.0879 24.5293L16.9848 24.3036L16.8236 24.1101L16.6494 23.9489L16.456 23.8264L16.2239 23.7361L15.9788 23.7039H15.7467L15.5017 23.7361L15.2889 23.8264L15.0761 23.9489L14.902 24.1101L14.7601 24.3036L14.6569 24.5293L14.586 24.7614L14.5667 24.9936L14.586 25.2386L14.6569 25.4643L14.7601 25.6771L14.902 25.8705L15.0761 26.0317L15.2889 26.1736L15.5017 26.2574L15.7467 26.2961H15.9788L16.2239 26.2574L16.456 26.1736L16.6494 26.0317L16.8236 25.8705L16.9848 25.6771L17.0879 25.4643L17.1395 25.2386L17.1782 24.9936L17.1395 24.7614L17.0879 24.5293Z" fill="#562823"/>
<path d="M32.925 25.4643L33.0346 25.6771L33.1764 25.8705L33.3505 26.0317L33.5633 26.1736L33.7761 26.2574L34.0212 26.2961H34.2662L34.4983 26.2574L34.724 26.1736L34.9175 26.0317L35.098 25.8705L35.2528 25.6771L35.3624 25.4643L35.414 25.2386L35.4462 24.9936L35.414 24.7614L35.3624 24.5293L35.2528 24.3036L35.098 24.1101L34.9175 23.9489L34.724 23.8264L34.4983 23.7361L34.2662 23.7039H34.0212L33.7761 23.7361L33.5633 23.8264L33.3505 23.9489L33.1764 24.1101L33.0346 24.3036L32.925 24.5293L32.854 24.7614L32.8411 24.9936L32.854 25.2386L32.925 25.4643Z" fill="#562823"/>
<path d="M5.92598 26.7217L6.24195 26.8442L6.59661 26.9151H6.95126L7.29947 26.8442L7.62188 26.7217L7.93785 26.5282L8.18288 26.2961L8.39568 26.0124L8.55044 25.6964L8.66006 25.3418L8.6923 24.9935L8.66006 24.6389L8.55044 24.3036L8.39568 23.9876L8.18288 23.7039L7.93785 23.4718L7.62188 23.2783L7.29947 23.1558L6.95126 23.0849H6.59661L6.24195 23.1558L5.92598 23.2783L5.61002 23.4718L5.35854 23.7039L5.15219 23.9876L4.99098 24.3036L4.88781 24.6389L4.84912 24.9935L4.88781 25.3418L4.99098 25.6964L5.15219 26.0124L5.35854 26.2961L5.61002 26.5282L5.92598 26.7217Z" fill="#562823"/>
<path d="M23.7942 34.6015L23.8974 34.8143L24.0392 35.0077L24.2133 35.1689L24.4261 35.3108L24.6389 35.3946L24.884 35.4333H25.129L25.3611 35.3946L25.5933 35.3108L25.7867 35.1689L25.9608 35.0077L26.122 34.8143L26.2252 34.6015L26.2768 34.3758L26.3155 34.1243L26.2768 33.8986L26.2252 33.6665L26.122 33.4408L25.9608 33.2474L25.7867 33.0861L25.5933 32.9636L25.3611 32.8734L25.129 32.8411H24.884L24.6389 32.8734L24.4261 32.9636L24.2133 33.0861L24.0392 33.2474L23.8974 33.4408L23.7942 33.6665L23.7233 33.8986L23.7039 34.1243L23.7233 34.3758L23.7942 34.6015Z" fill="#562823"/>
<path d="M26.7926 42.5393L26.6314 42.2234L26.4186 41.9396L26.1542 41.6946L25.8576 41.5141L25.5223 41.3722L25.187 41.3206H24.8323L24.4777 41.3722L24.1424 41.5141L23.8457 41.6946L23.5814 41.9396L23.3686 42.2234L23.2074 42.5393L23.1235 42.8746L23.0848 43.2293L23.1235 43.5775L23.2074 43.9128L23.3686 44.2352L23.5814 44.5125L23.8457 44.764L24.1424 44.9381L24.4777 45.08L24.8323 45.1315H25.187L25.5223 45.08L25.8576 44.9381L26.1542 44.764L26.4186 44.5125L26.6314 44.2352L26.7926 43.9128L26.8958 43.5775L26.9151 43.2293L26.8958 42.8746L26.7926 42.5393Z" fill="#562823"/>
</g>
<defs>
<clipPath id="clip0_6_1034">
<rect width="50" height="50" fill="white"/>
</clipPath>
</defs>
</svg>
